<svg width="35" height="30" viewBox="0 0 35 30" fill="none" xmlns="http://www.w3.org/2000/svg">
<g clip-path="url(#clip0_5_179)">
<path fill-rule="evenodd" clip-rule="evenodd" d="M17.5145 0C7.82942 0 0 6.76041 0 15.124C0 21.8094 5.01658 27.4685 11.9759 29.4714C12.846 29.622 13.1647 29.146 13.1647 28.7456C13.1647 28.395 13.136 27.1931 13.136 25.9409C8.26393 26.8425 7.24936 24.138 7.24936 24.138C6.46638 22.3853 5.30626 21.9348 5.30626 21.9348C3.71162 21.0083 5.42241 21.0083 5.42241 21.0083C7.19128 21.1085 8.11946 22.5607 8.11946 22.5607C9.68505 24.8642 12.2079 24.2133 13.2228 23.8126C13.3676 22.836 13.8319 22.16 14.3248 21.7845C10.439 21.4339 6.35059 20.1319 6.35059 14.3225C6.35059 12.6699 7.04609 11.3178 8.14814 10.2663C7.97426 9.89079 7.36516 8.33804 8.32237 6.25983C8.32237 6.25983 9.80121 5.85912 13.1357 7.81227C14.5633 7.48121 16.0356 7.3128 17.5145 7.31138C18.9933 7.31138 20.5008 7.48685 21.8929 7.81227C25.2277 5.85912 26.7066 6.25983 26.7066 6.25983C27.6638 8.33804 27.0543 9.89079 26.8805 10.2663C28.0116 11.3178 28.6784 12.6699 28.6784 14.3225C28.6784 20.1319 24.59 21.4087 20.6751 21.7845C21.3132 22.2602 21.8639 23.1615 21.8639 24.5888C21.8639 26.617 21.8352 28.2447 21.8352 28.7453C21.8352 29.146 22.1543 29.622 23.024 29.4717C29.9833 27.4682 34.9999 21.8094 34.9999 15.124C35.0286 6.76041 27.1705 0 17.5145 0Z" fill="#24292F"/>
</g>
<defs>
<clipPath id="clip0_5_179">
<rect width="35" height="30" fill="white"/>
</clipPath>
</defs>
</svg>
