<svg width="137" height="137" viewBox="0 0 137 137" fill="none" xmlns="http://www.w3.org/2000/svg">
<path d="M137 14.385V2.055L125.313 0.684999C124.664 0.684999 120.768 0 114.275 0C87.654 0 68.1754 8.22 57.1374 22.605C48.6967 17.125 37.0095 13.7 23.3744 13.7C16.8815 13.7 12.3365 14.385 12.3365 14.385L0 16.44L0.649289 28.085C1.29858 48.635 11.0379 87.68 44.8009 87.68C45.4502 87.68 45.4502 87.68 46.0995 87.68V110.97C21.4265 114.395 0.649289 123.3 0.649289 123.3V137H130.507V123.3C130.507 123.3 109.73 114.395 85.0569 110.97V89.05C125.962 88.365 137 39.73 137 14.385ZM65.5782 109.6C63.6303 109.6 61.0332 109.6 59.0853 109.6V71.24C59.0853 71.24 57.7867 47.95 39.6066 47.95C39.6066 47.95 49.346 53.43 51.9431 73.295C49.346 73.98 46.7488 73.98 44.8009 73.98C14.9337 73.98 13.6351 28.085 13.6351 28.085C13.6351 28.085 17.5308 27.4 23.3744 27.4C35.7109 27.4 55.8389 30.14 61.6825 48.635C64.9289 17.81 98.0427 13.7 114.275 13.7C120.118 13.7 124.014 14.385 124.014 14.385C124.014 14.385 124.014 76.035 83.109 76.035C81.8104 76.035 79.8626 76.035 78.564 76.035C78.564 62.335 91.5498 41.785 91.5498 41.785C72.0711 48.635 72.0711 75.35 72.0711 75.35V109.6C70.1232 109.6 67.5261 109.6 65.5782 109.6Z" fill="black"/>
</svg>
