<svg width="155" height="123" viewBox="0 0 155 123" fill="none" xmlns="http://www.w3.org/2000/svg">
<path d="M77.5 123C67.9886 116.85 50.7273 112.147 38.75 112.147C27.125 112.147 15.1477 114.318 5.28409 119.744C4.57955 120.106 4.22727 120.106 3.52273 120.106C1.76136 120.106 0 118.297 0 116.488V10.8529C4.22727 7.59706 8.80682 5.42647 14.0909 3.61765C21.9114 1.08529 30.5068 0 38.75 0C52.4886 0 67.2841 2.89412 77.5 10.8529C87.7159 2.89412 102.511 0 116.25 0C124.493 0 133.089 1.08529 140.909 3.61765C146.193 5.42647 150.773 7.59706 155 10.8529V116.488C155 118.297 153.239 120.106 151.477 120.106C150.773 120.106 150.42 120.106 149.716 119.744C139.852 114.318 127.875 112.147 116.25 112.147C104.273 112.147 87.0114 116.85 77.5 123ZM70.4545 21.7059C60.8727 17.3647 48.1909 14.4706 38.75 14.4706C30.2955 14.4706 21.8409 15.5559 14.0909 18.0882V101.294C21.8409 98.7618 30.2955 97.6765 38.75 97.6765C48.1909 97.6765 60.8727 100.571 70.4545 104.912V21.7059ZM84.5455 104.912C94.1273 100.571 106.809 97.6765 116.25 97.6765C124.705 97.6765 133.159 98.7618 140.909 101.294V18.0882C133.159 15.5559 124.705 14.4706 116.25 14.4706C106.809 14.4706 94.1273 17.3647 84.5455 21.7059V104.912ZM91.5909 85.7382C98.3545 83.2059 106.527 81.9759 116.25 81.9759C123.577 81.9759 129.495 82.5547 133.864 83.7124V72.8594C127.734 71.7018 121.816 71.1229 116.25 71.1229C106.809 71.1229 98.6364 72.3529 91.5909 74.2341V85.7382ZM91.5909 66.4924C98.3545 63.96 106.527 62.6576 116.25 62.6576C123.577 62.6576 129.495 63.2365 133.864 64.3941V53.5412C127.734 52.3835 121.816 51.8771 116.25 51.8771C107.232 51.8771 98.9886 52.9624 91.5909 55.1329V66.4924ZM91.5909 47.0294C98.3545 44.6418 106.527 43.4118 116.25 43.4118C122.661 43.4118 128.65 44.0629 133.864 45.4376V34.2229C127.734 33.1376 121.816 32.5588 116.25 32.5588C106.95 32.5588 98.6364 33.6441 91.5909 35.8871V47.0294Z" fill="black"/>
</svg>
