<svg width="35" height="30" viewBox="0 0 35 30" fill="none" xmlns="http://www.w3.org/2000/svg">
<rect width="35" height="30" rx="5" fill="#353535"/>
<g clip-path="url(#clip0_5_187)">
<path d="M27.2975 5H7.69805C6.75918 5 6 5.64453 6 6.44141V23.5547C6 24.3516 6.75918 25 7.69805 25H27.2975C28.2363 25 29 24.3516 29 23.5586V6.44141C29 5.64453 28.2363 5 27.2975 5ZM12.8236 22.043H9.40957V12.4961H12.8236V22.043ZM11.1166 11.1953C10.0205 11.1953 9.13555 10.4258 9.13555 9.47656C9.13555 8.52734 10.0205 7.75781 11.1166 7.75781C12.2082 7.75781 13.0932 8.52734 13.0932 9.47656C13.0932 10.4219 12.2082 11.1953 11.1166 11.1953ZM25.5994 22.043H22.1898V17.4023C22.1898 16.2969 22.1674 14.8711 20.4154 14.8711C18.641 14.8711 18.3715 16.0781 18.3715 17.3242V22.043H14.9664V12.4961H18.2367V13.8008H18.2816C18.7354 13.0508 19.8494 12.2578 21.507 12.2578C24.9615 12.2578 25.5994 14.2344 25.5994 16.8047V22.043Z" fill="white"/>
</g>
<defs>
<clipPath id="clip0_5_187">
<rect width="23" height="20" fill="white" transform="translate(6 5)"/>
</clipPath>
</defs>
</svg>
