<svg width="139" height="130" viewBox="0 0 139 130" fill="none" xmlns="http://www.w3.org/2000/svg">
<path d="M69.5 0C30.8889 0 0 27.3684 0 61.5789V109.474C0 114.918 2.44077 120.139 6.78536 123.988C11.13 127.837 17.0225 130 23.1667 130H46.3333V75.2632H15.4444V61.5789C15.4444 48.8765 21.1396 36.6943 31.2769 27.7123C41.4143 18.7302 55.1636 13.6842 69.5 13.6842C83.8364 13.6842 97.5857 18.7302 107.723 27.7123C117.86 36.6943 123.556 48.8765 123.556 61.5789V75.2632H92.6667V130H115.833C121.978 130 127.87 127.837 132.215 123.988C136.559 120.139 139 114.918 139 109.474V61.5789C139 27.3684 107.879 0 69.5 0Z" fill="black"/>
</svg>
