<svg width="277" height="30" viewBox="0 0 277 30" fill="none" xmlns="http://www.w3.org/2000/svg">
<g clip-path="url(#clip0_5_178)">
<path fill-rule="evenodd" clip-rule="evenodd" d="M78.5145 0C68.8294 0 61 6.76041 61 15.124C61 21.8094 66.0166 27.4685 72.9759 29.4714C73.846 29.622 74.1647 29.146 74.1647 28.7456C74.1647 28.395 74.136 27.1931 74.136 25.9409C69.2639 26.8425 68.2494 24.138 68.2494 24.138C67.4664 22.3853 66.3063 21.9348 66.3063 21.9348C64.7116 21.0083 66.4224 21.0083 66.4224 21.0083C68.1913 21.1085 69.1195 22.5607 69.1195 22.5607C70.6851 24.8642 73.2079 24.2133 74.2228 23.8126C74.3676 22.836 74.8319 22.16 75.3248 21.7845C71.439 21.4339 67.3506 20.1319 67.3506 14.3225C67.3506 12.6699 68.0461 11.3178 69.1481 10.2663C68.9743 9.89079 68.3652 8.33804 69.3224 6.25983C69.3224 6.25983 70.8012 5.85912 74.1357 7.81227C75.5633 7.48121 77.0356 7.3128 78.5145 7.31138C79.9933 7.31138 81.5008 7.48685 82.8929 7.81227C86.2277 5.85912 87.7066 6.25983 87.7066 6.25983C88.6638 8.33804 88.0543 9.89079 87.8805 10.2663C89.0116 11.3178 89.6784 12.6699 89.6784 14.3225C89.6784 20.1319 85.59 21.4087 81.6751 21.7845C82.3132 22.2602 82.8639 23.1615 82.8639 24.5888C82.8639 26.617 82.8352 28.2447 82.8352 28.7453C82.8352 29.146 83.1543 29.622 84.024 29.4717C90.9833 27.4682 95.9999 21.8094 95.9999 15.124C96.0286 6.76041 88.1705 0 78.5145 0Z" fill="#24292F"/>
</g>
<g clip-path="url(#clip1_5_178)">
<path d="M139 2.70117C143.275 2.70117 143.781 2.71875 145.463 2.78906C147.025 2.85352 147.869 3.09961 148.431 3.30469C149.175 3.57422 149.713 3.90234 150.269 4.42383C150.831 4.95117 151.175 5.44922 151.463 6.14648C151.681 6.67383 151.944 7.4707 152.013 8.92969C152.088 10.5117 152.106 10.9863 152.106 14.9883C152.106 18.9961 152.088 19.4707 152.013 21.0469C151.944 22.5117 151.681 23.3027 151.463 23.8301C151.175 24.5273 150.825 25.0313 150.269 25.5527C149.706 26.0801 149.175 26.4023 148.431 26.6719C147.869 26.877 147.019 27.123 145.463 27.1875C143.775 27.2578 143.269 27.2754 139 27.2754C134.725 27.2754 134.219 27.2578 132.538 27.1875C130.975 27.123 130.131 26.877 129.569 26.6719C128.825 26.4023 128.288 26.0742 127.731 25.5527C127.169 25.0254 126.825 24.5273 126.538 23.8301C126.319 23.3027 126.056 22.5059 125.988 21.0469C125.913 19.4648 125.894 18.9902 125.894 14.9883C125.894 10.9805 125.913 10.5059 125.988 8.92969C126.056 7.46484 126.319 6.67383 126.538 6.14648C126.825 5.44922 127.175 4.94531 127.731 4.42383C128.294 3.89648 128.825 3.57422 129.569 3.30469C130.131 3.09961 130.981 2.85352 132.538 2.78906C134.219 2.71875 134.725 2.70117 139 2.70117ZM139 0C134.656 0 134.113 0.0175781 132.406 0.0878906C130.706 0.158203 129.538 0.416016 128.525 0.785156C127.469 1.17187 126.575 1.68164 125.688 2.51953C124.794 3.35156 124.25 4.18945 123.838 5.17383C123.444 6.12891 123.169 7.21875 123.094 8.8125C123.019 10.418 123 10.9277 123 15C123 19.0723 123.019 19.582 123.094 21.1816C123.169 22.7754 123.444 23.8711 123.838 24.8203C124.25 25.8105 124.794 26.6484 125.688 27.4805C126.575 28.3125 127.469 28.8281 128.519 29.209C129.538 29.5781 130.7 29.8359 132.4 29.9062C134.106 29.9766 134.65 29.9941 138.994 29.9941C143.338 29.9941 143.881 29.9766 145.588 29.9062C147.288 29.8359 148.456 29.5781 149.469 29.209C150.519 28.8281 151.413 28.3125 152.3 27.4805C153.188 26.6484 153.738 25.8105 154.144 24.8262C154.538 23.8711 154.813 22.7813 154.888 21.1875C154.963 19.5879 154.981 19.0781 154.981 15.0059C154.981 10.9336 154.963 10.4238 154.888 8.82422C154.813 7.23047 154.538 6.13477 154.144 5.18555C153.75 4.18945 153.206 3.35156 152.313 2.51953C151.425 1.6875 150.531 1.17188 149.481 0.791016C148.463 0.421875 147.3 0.164062 145.6 0.09375C143.888 0.0175781 143.344 0 139 0Z" fill="#000100"/>
<path d="M139 7.29492C134.463 7.29492 130.781 10.7461 130.781 15C130.781 19.2539 134.463 22.7051 139 22.7051C143.538 22.7051 147.219 19.2539 147.219 15C147.219 10.7461 143.538 7.29492 139 7.29492ZM139 19.998C136.056 19.998 133.669 17.7598 133.669 15C133.669 12.2402 136.056 10.002 139 10.002C141.944 10.002 144.331 12.2402 144.331 15C144.331 17.7598 141.944 19.998 139 19.998Z" fill="#000100"/>
<path d="M149.462 6.99024C149.462 7.98633 148.6 8.78907 147.544 8.78907C146.481 8.78907 145.625 7.98047 145.625 6.99024C145.625 5.99414 146.488 5.19141 147.544 5.19141C148.6 5.19141 149.462 6 149.462 6.99024Z" fill="#000100"/>
</g>
<path d="M25.9623 2.37988H30.7414L20.3005 12.9092L32.5834 27.2373H22.966L15.4333 18.5474L6.81417 27.2373H2.03219L13.1998 15.975L1.41675 2.37988H11.2783L18.0872 10.3228L25.9623 2.37988ZM24.285 24.7134H26.9332L9.83939 4.7713H6.99765L24.285 24.7134Z" fill="black"/>
<rect x="182" y="2" width="33" height="27" rx="5" fill="#353535"/>
<rect x="182" y="2" width="33" height="27" rx="5" fill="#353535"/>
<rect x="182" y="2" width="32" height="28" rx="5" fill="#353535"/>
<path d="M211.741 12.2C211.741 12.2 211.487 10.5454 210.705 9.8188C209.715 8.86255 208.608 8.85786 208.1 8.80161C204.464 8.55786 199.005 8.55786 199.005 8.55786H198.995C198.995 8.55786 193.536 8.55786 189.9 8.80161C189.392 8.85786 188.285 8.86255 187.295 9.8188C186.513 10.5454 186.264 12.2 186.264 12.2C186.264 12.2 186 14.1454 186 16.086V17.9047C186 19.8454 186.259 21.7907 186.259 21.7907C186.259 21.7907 186.513 23.4454 187.29 24.1719C188.28 25.1282 189.58 25.0954 190.159 25.1985C192.241 25.3813 199 25.4375 199 25.4375C199 25.4375 204.464 25.4282 208.1 25.1891C208.608 25.1329 209.715 25.1282 210.705 24.1719C211.487 23.4454 211.741 21.7907 211.741 21.7907C211.741 21.7907 212 19.85 212 17.9047V16.086C212 14.1454 211.741 12.2 211.741 12.2ZM196.314 20.1125V13.3672L203.337 16.7516L196.314 20.1125Z" fill="white"/>
<rect x="242" width="35" height="30" rx="5" fill="#353535"/>
<g clip-path="url(#clip2_5_178)">
<path d="M269.297 5H249.698C248.759 5 248 5.64453 248 6.44141V23.5547C248 24.3516 248.759 25 249.698 25H269.297C270.236 25 271 24.3516 271 23.5586V6.44141C271 5.64453 270.236 5 269.297 5ZM254.824 22.043H251.41V12.4961H254.824V22.043ZM253.117 11.1953C252.021 11.1953 251.136 10.4258 251.136 9.47656C251.136 8.52734 252.021 7.75781 253.117 7.75781C254.208 7.75781 255.093 8.52734 255.093 9.47656C255.093 10.4219 254.208 11.1953 253.117 11.1953ZM267.599 22.043H264.19V17.4023C264.19 16.2969 264.167 14.8711 262.415 14.8711C260.641 14.8711 260.371 16.0781 260.371 17.3242V22.043H256.966V12.4961H260.237V13.8008H260.282C260.735 13.0508 261.849 12.2578 263.507 12.2578C266.962 12.2578 267.599 14.2344 267.599 16.8047V22.043Z" fill="white"/>
</g>
<defs>
<clipPath id="clip0_5_178">
<rect width="35" height="30" fill="white" transform="translate(61)"/>
</clipPath>
<clipPath id="clip1_5_178">
<rect width="32" height="30" fill="white" transform="translate(123)"/>
</clipPath>
<clipPath id="clip2_5_178">
<rect width="23" height="20" fill="white" transform="translate(248 5)"/>
</clipPath>
</defs>
</svg>
