<svg width="33" height="28" viewBox="0 0 33 28" fill="none" xmlns="http://www.w3.org/2000/svg">
<rect width="33" height="27" rx="5" fill="#353535"/>
<rect width="33" height="27" rx="5" fill="#353535"/>
<rect width="32" height="28" rx="5" fill="#353535"/>
<path d="M29.741 10.2C29.741 10.2 29.4871 8.54536 28.7051 7.8188C27.7148 6.86255 26.6078 6.85786 26.1 6.80161C22.4641 6.55786 17.0051 6.55786 17.0051 6.55786H16.9949C16.9949 6.55786 11.5359 6.55786 7.9 6.80161C7.39219 6.85786 6.28516 6.86255 5.29492 7.8188C4.51289 8.54536 4.26406 10.2 4.26406 10.2C4.26406 10.2 4 12.1454 4 14.086V15.9047C4 17.8454 4.25898 19.7907 4.25898 19.7907C4.25898 19.7907 4.51289 21.4454 5.28984 22.1719C6.28008 23.1282 7.58008 23.0954 8.15898 23.1985C10.241 23.3813 17 23.4375 17 23.4375C17 23.4375 22.4641 23.4282 26.1 23.1891C26.6078 23.1329 27.7148 23.1282 28.7051 22.1719C29.4871 21.4454 29.741 19.7907 29.741 19.7907C29.741 19.7907 30 17.85 30 15.9047V14.086C30 12.1454 29.741 10.2 29.741 10.2ZM14.3137 18.1125V11.3672L21.3367 14.7516L14.3137 18.1125Z" fill="white"/>
</svg>
